# xmcd CD Database Entry
#
# Track frame offsets:
# 225
# 23526
# 39482
# 67284
# 78995
# 99002
# 138233
# 159736
# 183653
# 209547
# 229129
# 240266
# 264634
#
# Disc length: 3700 seconds
#
# Revision: 2
# Processed by: cddbd v1.4PL0 Copyright (c) Steve Scherf et al.
# Submitted via: tcd 2.0b
#
DISCID=aa0e710d
DTITLE=Whitesnake - Northwinds In Alkmar
DYEAR=1900
DGENRE=
TTITLE0=Lady Luck
TTITLE1=Come On
TTITLE2=Ain't No Love In The Heart Of The City
TTITLE3=Micky Moody Solo
TTITLE4=Steal Away
TTITLE5=Mistreated
TTITLE6=Belgian Tom's Hat Trick
TTITLE7=Lady Double Dealer
TTITLE8=Lady
TTITLE9=Breakdown
TTITLE10=Rock Me Baby
TTITLE11=Going Down
TTITLE12=???
EXTD=
EXTT0=
EXTT1=
EXTT2=
EXTT3=
EXTT4=
EXTT5=
EXTT6=
EXTT7=
EXTT8=
EXTT9=
EXTT10=
EXTT11=
EXTT12=
PLAYORDER=
